<svg width="128" height="128" viewBox="0 0 128 128" fill="none" xmlns="http://www.w3.org/2000/svg">
<mask id="mask0_1_9" style="mask-type:alpha" maskUnits="userSpaceOnUse" x="0" y="0" width="128" height="128">
<circle cx="64" cy="64" r="64" fill="#DBDBDB"/>
</mask>
<g mask="url(#mask0_1_9)">
<circle cx="64" cy="64" r="64" fill="#E8F7F8"/>
<path d="M46.9333 85.3333V74.6667V64L45.5111 60.4445L44.8 55.4667L41.9555 54.7556L41.2444 54.0444L40.5333 51.2L39.8222 48.3556C40.3911 48.3556 40.0592 46.9333 39.8222 46.2222C39.8222 45.2741 39.68 43.2356 39.1111 42.6667C38.5422 42.0978 39.3481 41.0074 39.8222 40.5333L41.2444 39.8222L43.3777 41.2444V34.8444V31.2889L44.0888 29.8667L47.6444 23.4667L55.4666 24.8889L60.4444 19.9111L69.6888 24.1778L76.0888 27.0222L81.7777 29.1556V32L83.9111 34.8444L85.3333 38.4L83.9111 44.0889H85.3333L86.7555 41.2444L88.8888 42.6667V45.5111L87.4666 49.0667C88.8888 49.7778 85.3333 54.7556 86.0444 55.4667C86.6133 56.0356 83.9111 56.1778 82.4888 56.1778L81.0666 63.2889C79.9288 63.2889 81.5407 72.2963 82.4888 76.8L91.0222 82.4889L90.3111 91.0222C76.3259 92.2074 48.2133 94.5778 47.6444 94.5778C47.0755 94.5778 46.9333 88.4148 46.9333 85.3333Z" fill="#F5D5C7"/>
<path d="M40.5333 34.8444L41.2444 36.2667L42.6667 30.5778L44.0889 24.8889L41.2444 25.6L40.5333 34.8444Z" fill="#2B4B20"/>
<path d="M40.5333 22.0444V23.4667V24.1778V24.8889L62.5778 22.0444L84.6222 23.4667H86.0444V20.6222C83.437 16.5926 75.3778 8.24889 64 7.11111C52.6222 5.97333 43.6148 16.5926 40.5333 22.0444Z" fill="#32BC50"/>
<path d="M87.4667 26.3111L86.0444 23.4667H85.3333L83.9111 22.7556L81.7778 27.0222L84.6222 36.2667H88.1778L87.4667 26.3111Z" fill="#2B4B20"/>
<path d="M41.2445 32.7111V39.1111L43.3778 41.9555L44.8 28.4444L46.9334 27.7333L50.4889 24.8889H56.1778L54.7556 27.0222L54.0445 26.3111C53.3334 26.3111 51.9111 26.5955 51.9111 27.7333C51.9111 28.8711 55.2297 27.7333 56.8889 27.0222L59.7334 23.4667L61.1556 25.6L64.7111 27.0222V28.4444L61.8667 30.5778C62.3408 30.3407 63.7156 29.7244 65.4222 29.1555C67.1289 28.5867 66.1334 26.5481 65.4222 25.6L61.1556 23.4667H64L65.4222 23.8222L66.1334 24.8889L67.5556 24.1778L69.6889 24.8889L70.4 27.0222L69.6889 30.5778H68.9778V27.7333C66.8445 30.5778 68.9778 32 69.6889 32C70.2578 32 70.8741 29.6296 71.1111 28.4444V25.6L73.2445 27.0222L74.6667 31.2889L76.0889 28.4444H78.2222L80.3556 30.5778L81.7778 32L84.6222 38.4L83.9111 44.0889H85.3334L86.7556 41.2444L88.1778 36.9778L86.7556 30.5778L83.9111 28.4444L85.3334 27.7333L83.2 27.0222L84.6222 25.6H83.2L84.6222 23.4667C76.0889 10.6667 63.2889 11.3778 62.5778 11.3778C62.0089 11.3778 57.1259 13.7481 54.7556 14.9333L48.3556 19.2L46.2222 21.3333L43.7334 23.8222L44.0889 24.8889L41.9556 23.4667L42.6667 24.8889L40.5334 24.1778L38.4 22.0444L39.8222 24.8889L42.6667 26.3111L41.2445 27.0222H42.6667L41.2445 32.7111Z" fill="#1B0505"/>
<path d="M45.5111 76.0889H44.0889L38.4 78.9333L39.1111 124.444L60.4445 132.267L82.4889 128.711L86.0445 85.3333C81.7778 89.6 69.6889 90.3111 66.8445 91.0222C64 91.7333 49.7778 84.6222 47.6445 81.0667C45.9378 78.2222 46.4593 75.6148 46.9334 74.6667L45.5111 76.0889Z" fill="#E0E9FA"/>
<path d="M17.7778 87.4667L7.82224 93.8667V100.267C13.037 107.378 23.6089 121.6 24.1778 121.6C24.7467 121.6 34.8445 122.548 39.8222 123.022V119.467L39.1111 114.489L39.8222 104.533V98.1333L39.1111 91.0222L38.4 88.8889L39.1111 85.6889L38.4 81.7778V78.2222H40.5333L43.3778 76.0889L40.5333 75.3778L34.1333 74.6667H30.5778L26.3111 75.3778L19.9111 84.6222L22.4 85.6889L17.7778 87.4667Z" fill="#C7B6AE"/>
<path d="M76.8 121.6V126.578L90.3111 128L118.756 98.8444L106.667 90.3111L102.4 88.8889L101.689 87.4667L91.7333 78.9333H90.3111L86.7555 80.3555L90.3111 82.4889L86.7555 84.6222L85.3333 87.4667V88.8889L83.9111 90.3111V93.1555L84.6222 95.2889L76.8 121.6Z" fill="#C7B6AE"/>
<path d="M73.9556 130.133L46.9333 128.711L49.0667 112.356L75.3778 113.067L73.9556 130.133Z" fill="#D2DEDD"/>
<path d="M59.7333 54.0444H50.4889L50.8213 52.7149C51.0439 51.8246 51.8438 51.2 52.7616 51.2H56.1778L58.4941 50.8139C59.7471 50.6051 61.0327 50.881 62.0896 51.5857L62.5778 51.9111L63.7141 51.3429C64.8254 50.7873 66.0817 50.5904 67.3097 50.7793L71.5235 51.4275C73.4949 51.7308 75.1969 52.9715 76.0889 54.7556L65.4222 54.0444H59.7333Z" fill="#070101"/>
</g>
</svg>
